<svg width="40" height="41" viewBox="0 0 40 41" fill="none" xmlns="http://www.w3.org/2000/svg">
<g id="All HE">
<path id="Path" d="M31.7037 11.7356H28.2963V8.3189C28.2963 3.7245 24.5819 0 20 0C15.4181 0 11.7037 3.7245 11.7037 8.3189V11.7356H8.2963C3.71438 11.7356 0 15.4601 0 20.0545C0 24.6489 3.71438 28.3734 8.2963 28.3734H11.7037V31.7901C11.7037 36.3845 15.4181 40.109 20 40.109C24.5819 40.109 28.2963 36.3845 28.2963 31.7901V28.3734H31.7037C36.2856 28.3734 40 24.6489 40 20.0545C40 15.4601 36.2856 11.7356 31.7037 11.7356Z" fill="#EC6625"/>
<ellipse id="Oval" cx="19.9995" cy="20.0554" rx="7.25926" ry="7.27904" fill="white"/>
<path id="Path_2" d="M24.1473 17.5289C23.6741 17.048 23.0285 16.7773 22.3547 16.7773C21.681 16.7773 21.0354 17.048 20.5621 17.5289L19.9992 18.0636L19.4362 17.5289C18.963 17.048 18.3173 16.7773 17.6436 16.7773C16.9699 16.7773 16.3243 17.048 15.851 17.5289C15.3715 18.0034 15.1016 18.6508 15.1016 19.3263C15.1016 20.0019 15.3715 20.6493 15.851 21.1238L16.7103 21.9854L19.7029 24.9862C19.7761 25.0745 19.8846 25.1256 19.9992 25.1256C20.1137 25.1256 20.2223 25.0745 20.2955 24.9862L23.2881 21.9854L24.1473 21.1238C24.6269 20.6493 24.8968 20.0019 24.8968 19.3263C24.8968 18.6508 24.6269 18.0034 24.1473 17.5289Z" fill="#001F4C"/>
</g>
</svg>
