<svg width="101" height="41" viewBox="0 0 101 41" fill="none" xmlns="http://www.w3.org/2000/svg">
<path d="M10.0941 15.039H4.16737L2.94125 17.9237H0.727417L6.21133 5.62451H7.99961L13.5005 17.9237H11.3037L10.0946 15.039H10.0941Z M9.36158 13.3114L7.13074 8.04283L4.89965 13.3114H9.36158Z" fill="#A31126"/>
<path d="M15.2033 17.509C14.5445 17.1405 14.0392 16.6193 13.6874 15.9456C13.3354 15.2718 13.1593 14.4801 13.1593 13.5704C13.1593 12.6607 13.3437 11.8603 13.7129 11.1693C14.0817 10.4783 14.6041 9.94012 15.2798 9.55416C15.955 9.16844 16.7361 8.97559 17.6215 8.97559C18.2344 8.97559 18.8276 9.07354 19.4013 9.26918C19.9744 9.46509 20.4315 9.73559 20.7722 10.081L20.1761 11.6012C19.8126 11.3018 19.4268 11.0744 19.018 10.9189C18.6092 10.7633 18.2062 10.6857 17.8089 10.6857C17.0366 10.6857 16.4349 10.9305 16.0036 11.4198C15.5718 11.9093 15.3564 12.6147 15.3564 13.5359C15.3564 14.457 15.5693 15.1597 15.9951 15.6434C16.4209 16.127 17.0253 16.3689 17.8089 16.3689C18.2062 16.3689 18.6092 16.2884 19.018 16.127C19.4268 15.9659 19.8126 15.7357 20.1761 15.436L20.7722 16.956C20.4087 17.3014 19.9376 17.5722 19.3585 17.7678C18.7796 17.9635 18.1719 18.0614 17.5362 18.0614C16.639 18.0614 15.8612 17.8772 15.203 17.5087L15.2033 17.509Z" fill="#A31126"/>
<path d="M24.9104 10.8241V14.7282C24.9104 15.7534 25.3813 16.2657 26.3239 16.2657C26.5849 16.2657 26.8688 16.2198 27.1753 16.1274V17.8375C26.8005 17.9758 26.3465 18.0448 25.8131 18.0448C24.8364 18.0448 24.0871 17.7685 23.565 17.2155C23.0426 16.6629 22.7817 15.8681 22.7817 14.8317V10.8241H21.1297V9.20032H22.7817V7.07559L24.9104 6.3501V9.20032H27.1926V10.8241H24.9104Z" fill="#A31126"/>
<path d="M30.207 5.24438V7.36911H27.8398V5.24438H30.207ZM27.9759 9.20023H30.0876V17.9237H27.9759V9.20023Z" fill="#A31126"/>
<path d="M39.8801 9.21753L36.1164 17.9237H34.2601L30.5475 9.21753H32.7783L35.2478 15.4709L37.7684 9.21753H39.8801Z" fill="#A31126"/>
<path d="M48.3784 9.20015V17.9236H46.2837V16.5244C46.0225 17.0081 45.6477 17.3854 45.1596 17.6559C44.6713 17.9264 44.1149 18.0619 43.4907 18.0619C42.7414 18.0619 42.0769 17.8777 41.498 17.5092C40.9189 17.1408 40.4703 16.617 40.1526 15.9372C39.8346 15.2579 39.6757 14.4689 39.6757 13.5706C39.6757 12.6723 39.8376 11.875 40.1611 11.1782C40.4848 10.4816 40.9359 9.94037 41.515 9.5544C42.0939 9.16869 42.7524 8.97583 43.4907 8.97583C44.1149 8.97583 44.6713 9.11134 45.1596 9.38184C45.6477 9.65261 46.0223 10.0297 46.2837 10.5134V9.20041H48.3784V9.20015Z M45.7048 15.6261C46.0906 15.131 46.2839 14.4342 46.2839 13.5359C46.2839 12.6376 46.0908 11.9065 45.7048 11.4112C45.3188 10.9161 44.7681 10.6684 44.0528 10.6684C43.3376 10.6684 42.8012 10.9247 42.4094 11.437C42.0176 11.9496 41.8218 12.6609 41.8218 13.5704C41.8218 14.4799 42.0176 15.1597 42.4094 15.6433C42.8012 16.127 43.3546 16.3688 44.0699 16.3688C44.7851 16.3688 45.3188 16.1214 45.7048 15.6261Z" fill="#A31126"/>
<path d="M52.7211 10.8241V14.7282C52.7211 15.7534 53.1919 16.2657 54.1346 16.2657C54.3955 16.2657 54.6795 16.2198 54.9859 16.1274V17.8375C54.6112 17.9758 54.1571 18.0448 53.6237 18.0448C52.647 18.0448 51.8977 17.7685 51.3756 17.2155C50.8532 16.6629 50.5923 15.8681 50.5923 14.8317V10.8241H48.9404V9.20032H50.5923V7.07559L52.7211 6.3501V9.20032H55.0032V10.8241H52.7211Z" fill="#A31126"/>
<path d="M63.3141 13.6742H57.3874C57.4327 14.607 57.6626 15.2952 58.0771 15.7385C58.4914 16.1821 59.1074 16.4036 59.925 16.4036C60.8671 16.4036 61.7413 16.0928 62.5476 15.4708L63.1605 16.9563C62.7517 17.2905 62.2494 17.5582 61.6534 17.7595C61.0573 17.9607 60.4528 18.0617 59.8396 18.0617C58.4316 18.0617 57.3246 17.6587 56.5188 16.8525C55.7125 16.0466 55.3097 14.9409 55.3097 13.5359C55.3097 12.6493 55.4855 11.8603 55.8378 11.1693C56.1895 10.4783 56.6834 9.94012 57.3193 9.55416C57.9551 9.16844 58.6761 8.97559 59.4821 8.97559C60.663 8.97559 61.5967 9.36434 62.2836 10.1416C62.9706 10.9189 63.3141 11.9872 63.3141 13.3461V13.6742Z M58.1454 11.0399C57.7877 11.3797 57.5578 11.872 57.4557 12.5168H61.4578C61.3898 11.8603 61.1939 11.3652 60.8701 11.0313C60.5467 10.6973 60.1008 10.5304 59.5334 10.5304C58.966 10.5304 58.5032 10.7004 58.1454 11.0399Z" fill="#A31126"/>
<path d="M33.2381 26.5944C33.6534 27.16 33.8611 27.8578 33.8611 28.6876C33.8611 29.8318 33.4613 30.7276 32.662 31.3749C31.8624 32.0225 30.7499 32.3461 29.3248 32.3461H23.3198V18.9194H29.139C30.5022 18.9194 31.5744 19.2305 32.3552 19.8528C33.1361 20.475 33.5266 21.3332 33.5266 22.4269C33.5266 23.1311 33.3437 23.7439 32.9782 24.2656C32.6124 24.7874 32.1073 25.1677 31.4631 25.4065C32.2314 25.6329 32.8231 26.0287 33.2386 26.5946L33.2381 26.5944Z M25.662 24.5767H28.7482C30.4091 24.5767 31.2395 23.9482 31.2395 22.6911C31.2395 22.0625 31.0351 21.591 30.626 21.2769C30.217 20.9627 29.591 20.8054 28.7482 20.8054H25.662V24.577V24.5767Z M30.97 29.9886C31.3725 29.6745 31.5742 29.1779 31.5742 28.4988C31.5742 27.8198 31.3725 27.2983 30.97 26.9715C30.5672 26.6446 29.9318 26.4812 29.0644 26.4812H25.6622V30.4601H29.0644C29.932 30.4601 30.5672 30.3031 30.97 29.9886Z" fill="#F26522"/>
<path d="M36.9751 31.8934C36.2498 31.4912 35.6921 30.9162 35.3016 30.1678C34.9113 29.42 34.7159 28.543 34.7159 27.5371C34.7159 26.5312 34.9111 25.6545 35.3016 24.9064C35.6921 24.1586 36.2498 23.5833 36.9751 23.1808C37.7001 22.7786 38.5397 22.5774 39.4941 22.5774C40.4485 22.5774 41.2664 22.7786 41.9854 23.1808C42.7041 23.5833 43.259 24.1586 43.6493 24.9064C44.0399 25.6545 44.235 26.5315 44.235 27.5371C44.235 28.5428 44.0399 29.42 43.6493 30.1678C43.259 30.9159 42.7041 31.4912 41.9854 31.8934C41.2664 32.2958 40.436 32.4968 39.4941 32.4968C38.5522 32.4968 37.7001 32.2958 36.9751 31.8934ZM41.2881 29.8661C41.7034 29.3446 41.9111 28.5681 41.9111 27.5371C41.9111 26.5061 41.7002 25.7428 41.2791 25.2081C40.8576 24.6739 40.2627 24.4067 39.4944 24.4067C38.7261 24.4067 38.1121 24.6739 37.6911 25.2081C37.2695 25.7425 37.0589 26.5188 37.0589 27.5371C37.0589 28.5554 37.2663 29.3446 37.6816 29.8661C38.0966 30.3878 38.6948 30.6487 39.4756 30.6487C40.2564 30.6487 40.8728 30.3878 41.2881 29.8661Z" fill="#F26522"/>
<path d="M47.2374 31.8934C46.5121 31.4912 45.9545 30.9162 45.5639 30.1678C45.1737 29.42 44.9783 28.543 44.9783 27.5371C44.9783 26.5312 45.1734 25.6545 45.5639 24.9064C45.9545 24.1586 46.5121 23.5833 47.2374 23.1808C47.9624 22.7786 48.802 22.5774 49.7564 22.5774C50.7109 22.5774 51.5287 22.7786 52.2477 23.1808C52.9665 23.5833 53.5214 24.1586 53.9117 24.9064C54.3022 25.6545 54.4973 26.5315 54.4973 27.5371C54.4973 28.5428 54.3022 29.42 53.9117 30.1678C53.5214 30.9159 52.9665 31.4912 52.2477 31.8934C51.5287 32.2958 50.6981 32.4968 49.7564 32.4968C48.8148 32.4968 47.9624 32.2958 47.2374 31.8934ZM51.5505 29.8661C51.9658 29.3446 52.1734 28.5681 52.1734 27.5371C52.1734 26.5061 51.9625 25.7428 51.5415 25.2081C51.1199 24.6739 50.525 24.4067 49.7567 24.4067C48.9884 24.4067 48.3745 24.6739 47.9534 25.2081C47.5318 25.7425 47.3212 26.5188 47.3212 27.5371C47.3212 28.5554 47.5286 29.3446 47.9441 29.8661C48.3592 30.3878 48.9574 30.6487 49.7382 30.6487C50.519 30.6487 51.1354 30.3878 51.5507 29.8661H51.5505Z" fill="#F26522"/>
<path d="M55.148 31.2899L55.7988 29.6303C56.8027 30.3848 57.9488 30.7619 59.2382 30.7619C59.7961 30.7619 60.2267 30.6675 60.5304 30.4789C60.8339 30.2904 60.986 30.0262 60.986 29.6869C60.986 29.3979 60.8804 29.1682 60.67 28.9987C60.4591 28.829 60.0998 28.6815 59.5917 28.5557L58.0301 28.1974C56.3196 27.8203 55.4645 26.9339 55.4645 25.5385C55.4645 24.9604 55.6254 24.4481 55.9479 24.0015C56.2698 23.5554 56.7222 23.2064 57.3051 22.955C57.8875 22.7037 58.5627 22.5779 59.3315 22.5779C60.0008 22.5779 60.6452 22.6817 61.2649 22.889C61.8846 23.0963 62.4297 23.3952 62.9008 23.7848L62.2131 25.3878C61.2709 24.6838 60.3042 24.3316 59.3128 24.3316C58.7796 24.3316 58.3646 24.4324 58.0671 24.6333C57.7697 24.8346 57.6211 25.1112 57.6211 25.4631C57.6211 25.7397 57.7109 25.96 57.8905 26.1231C58.0701 26.2866 58.3769 26.4249 58.8109 26.538L60.4098 26.8963C61.3395 27.1103 62.018 27.4402 62.4455 27.8863C62.8733 28.3326 63.087 28.914 63.087 29.6306C63.087 30.5106 62.7397 31.2085 62.046 31.7239C61.3517 32.2395 60.4035 32.4971 59.2014 32.4971C57.5032 32.4971 56.1525 32.0949 55.1485 31.2902L55.148 31.2899Z" fill="#F26522"/>
<path d="M67.1954 24.5955V28.8574C67.1954 29.9765 67.7095 30.5358 68.7385 30.5358C69.0234 30.5358 69.3334 30.4858 69.6681 30.3848V32.2517C69.2591 32.4024 68.7632 32.478 68.1808 32.478C67.1148 32.478 66.2967 32.1763 65.7268 31.5729C65.1567 30.9694 64.8717 30.1021 64.8717 28.9706V24.5955H63.0682V22.823H64.8717V20.5034L67.1956 19.7114V22.823H69.6869V24.5955H67.1956H67.1954Z" fill="#F26522"/>
<path d="M78.7591 27.7071H72.2893C72.3388 28.7255 72.5897 29.4768 73.0423 29.9605C73.4946 30.4447 74.1671 30.6865 75.0593 30.6865C76.088 30.6865 77.0422 30.347 77.9226 29.6682L78.5918 31.2899C78.1455 31.6546 77.5971 31.9469 76.9464 32.1669C76.2956 32.3867 75.6357 32.4968 74.9664 32.4968C73.4293 32.4968 72.221 32.0568 71.3411 31.1768C70.4607 30.297 70.0209 29.0901 70.0209 27.5561C70.0209 26.5883 70.213 25.727 70.5973 24.9726C70.9813 24.2182 71.5205 23.6307 72.215 23.2095C72.909 22.7885 73.6958 22.5776 74.5762 22.5776C75.8651 22.5776 76.8843 23.0019 77.6343 23.8505C78.3841 24.6991 78.7591 25.8653 78.7591 27.3486V27.7069V27.7071Z M73.1166 24.8313C72.7263 25.2023 72.4752 25.7397 72.3636 26.4437H76.7327C76.6581 25.727 76.4445 25.1868 76.0912 24.8219C75.738 24.4575 75.2514 24.275 74.6317 24.275C74.012 24.275 73.5069 24.4608 73.1166 24.8313Z" fill="#F26522"/>
<path d="M85.9725 22.7474L85.954 24.8973C85.5572 24.7341 85.1482 24.6521 84.7269 24.6521C83.9336 24.6521 83.3294 24.8848 82.9143 25.35C82.4988 25.8151 82.2914 26.4312 82.2914 27.1981V32.3461H79.986V25.5197C79.986 24.5141 79.9362 23.615 79.8374 22.823H82.0127L82.1986 24.5014C82.434 23.8855 82.8058 23.414 83.3141 23.0869C83.8222 22.7601 84.3987 22.5967 85.0431 22.5967C85.4026 22.5967 85.7123 22.6472 85.9728 22.7477L85.9725 22.7474Z" fill="#F26522"/>
<path d="M92.6521 3.67143C92.517 3.57653 92.3771 3.48644 92.2383 3.39407C92.0982 3.30348 91.9608 3.20756 91.8165 3.12078C90.6717 2.41127 89.399 1.81519 88.0373 1.36172C87.8689 1.30006 87.6933 1.25641 87.5204 1.20464C87.3465 1.15541 87.1732 1.10288 86.9973 1.05721C86.8204 1.01559 86.6428 0.973975 86.4644 0.932105C86.3753 0.911551 86.2863 0.890742 86.1967 0.870188C86.1069 0.851917 86.0161 0.836438 85.9255 0.819436C85.7446 0.786955 85.563 0.753966 85.3806 0.721231C85.1982 0.689765 85.0134 0.670734 84.829 0.645358C84.7367 0.633685 84.6443 0.622266 84.5518 0.610593L84.4129 0.593591L84.2731 0.58268C84.0867 0.568723 83.8998 0.554512 83.7122 0.540555C83.5303 0.523807 83.3244 0.520762 83.1248 0.515179C83.0244 0.512895 82.9241 0.510612 82.8238 0.508075L82.6732 0.50503L82.5979 0.50376C82.5726 0.503252 82.5473 0.502745 82.5283 0.50376L82.395 5.01864C82.4017 5.01915 82.4085 5.01991 82.4153 5.02042C82.4378 5.02194 82.4538 5.02473 82.4693 5.02752L82.5178 5.03564L82.6146 5.05163L82.807 5.08258C82.9356 5.10339 83.0577 5.11836 83.1998 5.15059C84.2983 5.36502 85.3331 5.68755 86.271 6.12934C87.2124 6.56124 88.0605 7.09134 88.8166 7.6661C88.8591 7.69859 88.9006 7.73157 88.9424 7.76431L92.6528 3.67143C92.6528 3.67143 92.6526 3.67118 92.6523 3.67092L92.6521 3.67143Z" fill="url(#paint0_linear_17424_18515)"/>
<path d="M81.6676 4.95538C81.6732 4.9559 81.6786 4.95641 81.6842 4.95692V4.9541C81.6635 4.9541 81.6257 4.95461 81.6676 4.95564V4.95538Z" fill="#EE59A0"/>
<path d="M67.4766 18.4754L67.4924 17.9295L67.4964 17.7849C67.4976 17.7362 67.4986 17.6875 67.5031 17.6476L67.5239 17.3949L67.5439 17.1421L67.5534 17.0158C67.5572 16.9731 67.5644 16.9285 67.5697 16.8848L67.6032 16.6338L65.0516 16.1492L64.9983 16.5988C64.9923 16.6511 64.9848 16.7019 64.9803 16.7554L64.9683 16.9176L64.9451 17.2421L64.9225 17.5667C64.9178 17.623 64.917 17.6707 64.9163 17.7187L64.913 17.8636L64.8998 18.4756H67.4766V18.4754Z" fill="url(#paint1_linear_17424_18515)"/>
<path d="M67.7178 15.9194C67.8209 15.372 67.9487 14.83 68.1193 14.3022C68.1423 14.2174 68.1716 14.1347 68.2014 14.0522L68.2884 13.804L68.376 13.5564C68.389 13.5224 68.4028 13.4886 68.4168 13.4551L65.9675 12.3464C65.9332 12.4408 65.8972 12.5342 65.8652 12.6294L65.7706 12.9275L65.6756 13.2255C65.6435 13.2247 65.6118 13.4239 65.5868 13.5254L65.4259 14.1306C65.3741 14.3329 65.3363 14.5387 65.2898 14.7422L65.2235 15.0485L65.1712 15.3575L65.1584 15.4337L67.7178 15.9199V15.9194Z" fill="url(#paint2_linear_17424_18515)"/>
<path d="M71.0884 9.17809C71.1455 9.11643 71.203 9.05528 71.2611 8.99513C71.3741 8.86927 71.5007 8.7566 71.6198 8.63759L71.8004 8.46123C71.8622 8.40438 71.9263 8.34957 71.9888 8.29375C72.1154 8.18387 72.2375 8.06942 72.3663 7.96335C72.4969 7.85956 72.627 7.75578 72.7571 7.65224C73.6115 6.99475 74.5299 6.45247 75.4791 6.03428L74.0626 2.75317C72.867 3.42411 71.7432 4.24604 70.7169 5.18571C70.1152 5.73611 69.5576 6.33803 69.0302 6.96735C68.9754 7.03586 68.9204 7.10463 68.8656 7.17315L71.0884 9.17784V9.17809Z" fill="url(#paint3_linear_17424_18515)"/>
<path d="M68.6972 12.7896L68.9011 12.3575C68.9364 12.2778 68.9782 12.2017 69.0199 12.1253L69.1438 11.8961L69.2671 11.667C69.3099 11.5916 69.3564 11.5185 69.4007 11.4442C69.4918 11.297 69.5763 11.1463 69.6712 11.0021C69.768 10.8595 69.8648 10.7172 69.9616 10.5748C70.1713 10.2817 70.3889 9.99624 70.6163 9.7204L68.4255 7.74438C68.377 7.81188 68.3285 7.87964 68.2792 7.94663L68.0983 8.19734L67.9274 8.45542L67.7568 8.714C67.6997 8.80002 67.6425 8.88579 67.5912 8.97588C67.1559 9.67904 66.7733 10.4172 66.4346 11.1762C66.3448 11.3409 66.2947 11.5056 66.2249 11.6705L68.6975 12.7899L68.6972 12.7896Z" fill="url(#paint4_linear_17424_18515)"/>
<path d="M76.1413 5.76457C76.1425 5.76406 76.1438 5.76355 76.145 5.76304L76.3657 5.67727L76.5901 5.60343C76.7397 5.55522 76.8871 5.50269 77.0364 5.45777C77.3391 5.37987 77.6346 5.2875 77.9378 5.23015C78.537 5.09033 79.1412 5.01344 79.7359 4.96117C80.0351 4.94645 80.3298 4.9198 80.6255 4.92589C80.7728 4.92666 80.9192 4.92057 81.0655 4.92589C81.2117 4.93275 81.3573 4.93934 81.5026 4.94619L81.6112 4.95102L81.6652 4.9533L81.6835 4.95406L81.8143 0.530029C81.8021 0.530537 81.7898 0.53079 81.7776 0.531298C81.8161 0.532567 81.6905 0.530789 81.6897 0.532058L81.654 0.534851L81.5824 0.540433L81.4396 0.551598C81.2492 0.566824 81.0583 0.582303 80.8667 0.597782C80.6755 0.615546 80.4844 0.645235 80.293 0.669089C79.9097 0.711974 79.5282 0.790639 79.1457 0.860422C78.3839 1.02435 77.6211 1.21619 76.8763 1.48568C76.5003 1.60724 76.135 1.76634 75.766 1.91302C75.5836 1.9927 75.403 2.0772 75.2214 2.15967L74.9494 2.28477L74.6953 2.41597L76.1413 5.76558V5.76457Z" fill="url(#paint5_linear_17424_18515)"/>
<path d="M82.8571 9.16064H79.0634V12.2557H76.012V16.1035H79.0634V19.1986H82.8571V16.1035H85.9083V12.2557H82.8571V9.16064Z" fill="#A31126"/>
<path d="M94.5677 2.59326L86.4747 11.3378C86.7756 11.5294 86.9758 11.8687 86.9758 12.2556V12.463L94.5677 2.59326Z" fill="#F26522"/>
<path d="M87.1549 25.1624H99.911V22.6763H87.1549V25.1624Z" fill="url(#paint6_linear_17424_18515)"/>
<path d="M100.283 18.6551C100.283 13.0836 97.8048 8.09948 93.9067 4.77271L90.6679 9.29596C92.8307 11.7026 94.1496 14.903 94.1496 18.4158C94.1496 19.5006 94.0218 20.555 93.7841 21.566H100.051C100.202 20.6182 100.283 19.646 100.283 18.6551H100.283Z" fill="#A31126"/>
<defs>
<linearGradient id="paint0_linear_17424_18515" x1="55.2634" y1="4.13378" x2="95.3152" y2="4.13378" gradientUnits="userSpaceOnUse">
<stop stop-color="#EC6626"/>
<stop offset="1" stop-color="#B02D31"/>
</linearGradient>
<linearGradient id="paint1_linear_17424_18515" x1="55.2634" y1="17.3119" x2="95.3153" y2="17.3119" gradientUnits="userSpaceOnUse">
<stop stop-color="#EC6626"/>
<stop offset="1" stop-color="#B02D31"/>
</linearGradient>
<linearGradient id="paint2_linear_17424_18515" x1="55.2634" y1="14.1326" x2="95.3152" y2="14.1326" gradientUnits="userSpaceOnUse">
<stop stop-color="#EC6626"/>
<stop offset="1" stop-color="#B02D31"/>
</linearGradient>
<linearGradient id="paint3_linear_17424_18515" x1="55.2634" y1="5.96551" x2="95.3152" y2="5.96551" gradientUnits="userSpaceOnUse">
<stop stop-color="#EC6626"/>
<stop offset="1" stop-color="#B02D31"/>
</linearGradient>
<linearGradient id="paint4_linear_17424_18515" x1="55.2634" y1="10.267" x2="95.3152" y2="10.267" gradientUnits="userSpaceOnUse">
<stop stop-color="#EC6626"/>
<stop offset="1" stop-color="#B02D31"/>
</linearGradient>
<linearGradient id="paint5_linear_17424_18515" x1="55.2634" y1="3.14704" x2="95.315" y2="3.14704" gradientUnits="userSpaceOnUse">
<stop stop-color="#EC6626"/>
<stop offset="1" stop-color="#B02D31"/>
</linearGradient>
<linearGradient id="paint6_linear_17424_18515" x1="99.911" y1="23.9192" x2="87.1549" y2="23.9192" gradientUnits="userSpaceOnUse">
<stop stop-color="#C1272D"/>
<stop offset="1" stop-color="#F58220"/>
</linearGradient>
</defs>
</svg>
