<svg width="102" height="28" viewBox="0 0 102 28" fill="none" xmlns="http://www.w3.org/2000/svg">
<path d="M19.958 0V16.9405H15.8265V0H19.958Z" fill="#A5312D"/>
<path d="M42.9987 13.0768L45.9257 3.4668H50.3162L45.5371 16.9363H40.4472L35.6682 3.4668H40.0846L43.0116 13.0768INDIAN42.9987Z" fill="#A5312D"/>
<path d="M51.3394 6.54012C51.8574 5.49105 52.5697 4.68806 53.4763 4.13115C54.3829 3.57424 55.3802 3.28931 56.494 3.28931C57.4395 3.28931 58.2813 3.48358 58.9937 3.87212C59.706 4.26066 60.2629 4.76577 60.6514 5.38744V3.48358H64.7829V16.9531H60.6514V15.0492C60.2499 15.6709 59.693 16.1889 58.9677 16.5645C58.2554 16.9531 57.4136 17.1473 56.4681 17.1473C55.3672 17.1473 54.37 16.8624 53.4763 16.2925C52.5697 15.7227 51.8574 14.9067 51.3394 13.8577C50.8213 12.8086 50.5493 11.5912 50.5493 10.2054C50.5493 8.81957 50.8083 7.60213 51.3394 6.56602V6.54012ZM59.7966 7.7705C59.2268 7.17474 58.5274 6.87685 57.7115 6.87685C56.8955 6.87685 56.1961 7.17474 55.6263 7.75755C55.0564 8.34037 54.7715 9.15631 54.7715 10.1795C54.7715 11.2026 55.0564 12.0315 55.6263 12.6273C56.1961 13.236 56.8955 13.5339 57.7115 13.5339C58.5274 13.5339 59.2268 13.236 59.7966 12.6402C60.3665 12.0445 60.6514 11.2285 60.6514 10.2054C60.6514 9.18221 60.3665 8.36627 59.7966 7.7705Z" fill="#A5312D"/>
<path d="M75.2737 13.4437V16.9405H73.1756C71.6732 16.9405 70.5076 16.5779 69.6787 15.8397C68.8369 15.1014 68.4224 13.9099 68.4224 12.2521V6.89024H66.7776V3.45811H68.4224V0.181396H72.5539V3.45811H75.2608V6.89024H72.5539V12.3039C72.5539 12.7054 72.6446 12.9904 72.8389 13.1717C73.0331 13.353 73.3569 13.4437 73.8102 13.4437H75.2867H75.2737Z" fill="#A5312D"/>
<path d="M94.3898 27.9612C90.5043 27.9612 87.3442 24.801 87.3442 20.9156V19.2319H90.7245V20.9156C90.7245 22.936 92.3693 24.5808 94.3898 24.5808C96.4102 24.5808 98.055 22.936 98.055 20.9156C98.055 18.8952 96.4102 17.2503 94.3898 17.2503H83.6789C79.7935 17.2503 76.6334 14.0902 76.6334 10.2048C76.6334 6.31933 79.7935 3.15918 83.6789 3.15918C87.5644 3.15918 90.7245 6.31933 90.7245 10.2048V11.8884H81.6197V8.50812H86.9298C86.321 7.32954 85.0906 6.52655 83.666 6.52655C81.6456 6.52655 80.0007 8.17138 80.0007 10.1918C80.0007 12.2122 81.6456 13.8571 83.666 13.8571H94.3768C98.2623 13.8571 101.422 17.0172 101.422 20.9026C101.422 24.7881 98.2623 27.9482 94.3768 27.9482L94.3898 27.9612Z" fill="#A5312D"/>
<path d="M33.8806 17.2347H28.6871C24.8016 17.2347 21.6415 14.0746 21.6415 10.1891C21.6415 6.3037 24.8016 3.14355 28.6871 3.14355C32.5725 3.14355 35.7326 6.3037 35.7326 10.1891V11.8728H24.4778V8.4925H31.9379C31.3292 7.31391 30.0988 6.51093 28.6741 6.51093C26.6537 6.51093 25.0089 8.15576 25.0089 10.1762C25.0089 12.1966 26.6537 13.8414 28.6741 13.8414H33.8676V17.2218L33.8806 17.2347Z" fill="#A5312D"/>
<path d="M12.2391 17.2347H7.04558C3.16015 17.2347 0 14.0746 0 10.1891C0 6.3037 3.16015 3.14355 7.04558 3.14355C10.931 3.14355 14.0912 6.3037 14.0912 10.1891V11.8728H2.83636V8.4925H10.2964C9.68767 7.31391 8.45729 6.51093 7.03263 6.51093C5.0122 6.51093 3.36737 8.15576 3.36737 10.1762C3.36737 12.1966 5.0122 13.8414 7.03263 13.8414H12.2262V17.2218L12.2391 17.2347Z" fill="#A5312D"/>
<path d="M94.3768 13.856H88.9242V17.2363H94.3768C96.3972 17.2363 98.042 18.8811 98.042 20.9015C98.042 22.922 96.3972 24.5668 94.3768 24.5668C92.3563 24.5668 90.7115 22.922 90.7115 20.9015V19.2178H87.3312V20.9015C87.3312 24.787 90.4913 27.9471 94.3768 27.9471C98.2622 27.9471 101.422 24.787 101.422 20.9015C101.422 17.0161 98.2622 13.856 94.3768 13.856Z" fill="#DD853D"/>
</svg>
